{"title":"The Prince (2014) Dual Audio WEB-DL 720p MKV ","uid":10865112,"size":3199108550,"categoryP":"video","categoryS":"hd___movies","magnet":"?xt=urn:btih:add65b1a3512eb2c3bffe647e58a343db9130f31&amp;dn=The+Prince+%282014%29+Dual+Audio+WEB-DL+720p+MKV+&amp;tr=udp%3A%2F%2Ftracker.openbittorrent.com%3A80&amp;tr=udp%3A%2F%2Fopen.demonii.com%3A1337&amp;tr=udp%3A%2F%2Ftracker.coppersurfer.tk%3A6969&amp;tr=udp%3A%2F%2Fexodus.desync.com%3A6969","seeders":9,"leechers":0,"uploader":"darkj6","files":-1,"time":1408911515,"description":" ______   _______  ______    ___   _      ___  --------|\n|      | |   _   ||    _ |  |   | | |    |   ||   |----|    \n|  _    ||  |_|  ||   | ||  |   |_| |    |   ||   |___ \n| | |   ||       ||   |_||_ |      _|    |   ||    _  |\n| |_|   ||       ||    __  ||     |_  ___|   ||   | | |\n|       ||   _   ||   |  | ||    _  ||       ||   |_| |\n|______| |__| |__||___|  |_||___| |_||_______||_______|\n\nJoin ThePirateBay Forum:\n                                             &lt;a href=&quot;\nhttps://forum.suprbay.org/member.php?action=register&amp;referrer=908&quot; rel=&quot;nofollow&quot; target=&quot;_NEW&quot;&gt;\nhttps://forum.suprbay.org/member.php?action=register&amp;referrer=908&lt;/a&gt;\n\n\n &lt;a href=&quot;\nhttp://www.imdb.com/title/tt1085492/&quot; rel=&quot;nofollow&quot; target=&quot;_NEW&quot;&gt;\nhttp://www.imdb.com/title/tt1085492/&lt;/a&gt;\n\nFormat : MKV \n\nQuality : WEB-DL 720p \n\nVideo : 3844 Kb / s, 1280x532 \n\nAudio : Russian / English: AC3, 384 Kb / s (6 ch) \n\nSubtitles : English\n &lt;a href=&quot;\nhttp://you-logo.ru/show-image.php?id=cb1ff397f802473dfcb434f243dbb328&quot; rel=&quot;nofollow&quot; target=&quot;_NEW&quot;&gt;\nhttp://you-logo.ru/show-image.php?id=cb1ff397f802473dfcb434f243dbb328&lt;/a&gt;\n &lt;a href=&quot;\nhttp://you-logo.ru/show-image.php?id=4b6620fd6926c2679e460469cdb5a744&quot; rel=&quot;nofollow&quot; target=&quot;_NEW&quot;&gt;\nhttp://you-logo.ru/show-image.php?id=4b6620fd6926c2679e460469cdb5a744&lt;/a&gt;\n &lt;a href=&quot;\nhttp://you-logo.ru/show-image.php?id=e7179884454390ada11989d8c999ddb1&quot; rel=&quot;nofollow&quot; target=&quot;_NEW&quot;&gt;\nhttp://you-logo.ru/show-image.php?id=e7179884454390ada11989d8c999ddb1&lt;/a&gt;\n &lt;a href=&quot;\nhttp://you-logo.ru/show-image.php?id=b2c0522edc7c97a2c1b512b463fd2511&quot; rel=&quot;nofollow&quot; target=&quot;_NEW&quot;&gt;\nhttp://you-logo.ru/show-image.php?id=b2c0522edc7c97a2c1b512b463fd2511&lt;/a&gt;\n\nFormat : Matroska\nFormat version : Version 4 / Version 2\nFile size : 2.98 GiB\nDuration : 1h 30mn\nOverall bit rate : 4 706 Kbps\nEncoded date : UTC 2014-08-24 06:36:16\nWriting application : mkvmerge v6.1.0 ('Old Devil') built on Mar 4 2013 09:10:42\nWriting library : libebml v1.3.0 + libmatroska v1.4.0\n\nVideo\nID : 1\nFormat : AVC\nFormat/Info : Advanced Video Codec\nFormat profile : &lt;a class=&quot;__cf_email__&quot; href=&quot;/cdn-cgi/l/email-protection&quot; data-cfemail=&quot;4c012d25220c007f627d&quot;&gt;[email&amp;#160;protected]&lt;/a&gt;&lt;script cf-hash='f9e31' type=&quot;text/javascript&quot;&gt;\n/* &lt;![CDATA[ */!function(){try{var t=&quot;currentScript&quot;in document?document.currentScript:function(){for(var t=document.getElementsByTagName(&quot;script&quot;),e=t.length;e--;)if(t[e].getAttribute(&quot;cf-hash&quot;))return t[e]}();if(t&amp;&amp;t.previousSibling){var e,r,n,i,c=t.previousSibling,a=c.getAttribute(&quot;data-cfemail&quot;);if(a){for(e=&quot;&quot;,r=parseInt(a.substr(0,2),16),n=2;a.length-n;n+=2)i=parseInt(a.substr(n,2),16)^r,e+=String.fromCharCode(i);e=document.createTextNode(e),c.parentNode.replaceChild(e,c)}}}catch(u){}}();/* ]]&gt; */&lt;/script&gt;\nFormat settings, CABAC : No\nFormat settings, ReFrames : 2 frames\nCodec ID : V_MPEG4/ISO/AVC\nDuration : 1h 30mn\nBit rate : 3 844 Kbps\nWidth : 1 280 pixels\nHeight : 532 pixels\nDisplay aspect ratio : 2.40:1\nFrame rate : 23.976 fps\nColor space : YUV\nChroma subsampling : 4:2:0\nBit depth : 8 bits\nScan type : Progressive\nBits/(Pixel*Frame) : 0.235\nStream size : 2.43 GiB (82%)\nLanguage : English\nDefault : Yes\nForced : No\nColor primaries : BT.709-5, BT.1361, IEC 61966-2-4, SMPTE RP177\nTransfer characteristics : BT.709-5, BT.1361\nMatrix coefficients : BT.709-5, BT.1361, IEC 61966-2-4 709, SMPTE RP177\n\nAudio #1\nID : 2\nFormat : AC-3\nFormat/Info : Audio Coding 3\nMode extension : CM (complete main)\nFormat settings, Endianness : Big\nCodec ID : A_AC3\nDuration : 1h 30mn\nBit rate mode : Constant\nBit rate : 384 Kbps\nChannel(s) : 6 channels\nChannel positions : Front: L C R, Side: L R, LFE\nSampling rate : 48.0 KHz\nBit depth : 16 bits\nCompression mode : Lossy\nStream size : 249 MiB (8%)\nLanguage : Russian\nDefault : Yes\nForced : No\n\nAudio #2\nID : 3\nFormat : AC-3\nFormat/Info : Audio Coding 3\nMode extension : CM (complete main)\nFormat settings, Endianness : Big\nCodec ID : A_AC3\nDuration : 1h 30mn\nBit rate mode : Constant\nBit rate : 384 Kbps\nChannel(s) : 6 channels\nChannel positions : Front: L C R, Side: L R, LFE\nSampling rate : 48.0 KHz\nBit depth : 16 bits\nCompression mode : Lossy\nStream size : 249 MiB (8%)\nLanguage : English\nDefault : No\nForced : No\n\nText\nID : 4\nFormat : UTF-8\nCodec ID : S_TEXT/UTF8\nCodec ID/Info : UTF-8 Plain Text\nLanguage : English\nDefault : No\nForced : No\n\nMenu\n00:00:00.000 : en:Chapter 1\n00:03:34.000 : en:Chapter 2\n00:10:00.000 : en:Chapter 3\n00:20:16.000 : en:Chapter 4\n00:29:34.000 : en:Chapter 5\n00:42:07.000 : en:Chapter 6\n00:50:16.000 : en:Chapter 7\n00:58:12.000 : en:Chapter 8\n01:06:04.000 : en:Chapter 9\n01:15:07.000 : en:Chapter 10\n01:27:07.000 : en:Chapter 11","torrent":{"xt":"urn:btih:add65b1a3512eb2c3bffe647e58a343db9130f31","amp;dn":"The+Prince+%282014%29+Dual+Audio+WEB-DL+720p+MKV+","amp;tr":["udp%3A%2F%2Ftracker.openbittorrent.com%3A80","udp%3A%2F%2Fopen.demonii.com%3A1337","udp%3A%2F%2Ftracker.coppersurfer.tk%3A6969","udp%3A%2F%2Fexodus.desync.com%3A6969"],"infoHash":"add65b1a3512eb2c3bffe647e58a343db9130f31","infoHashBuffer":{"type":"Buffer","data":[173,214,91,26,53,18,235,44,59,255,230,71,229,138,52,61,185,19,15,49]},"announce":[],"urlList":[]}}